<?xml version="1.0" encoding="UTF-8"?>
<!DOCTYPE svg PUBLIC "-//W3C//DTD SVG 1.1//EN" "http://www.w3.org/Graphics/SVG/1.1/DTD/svg11.dtd">
<svg xmlns="http://www.w3.org/2000/svg" version="1.1" width="432px" height="432px" style="shape-rendering:geometricPrecision; text-rendering:geometricPrecision; image-rendering:optimizeQuality; fill-rule:evenodd; clip-rule:evenodd" xmlns:xlink="http://www.w3.org/1999/xlink">
<g><path style="opacity:0.994" fill="#f38eb0" d="M 157.5,70.5 C 172.229,107.183 187.063,143.849 202,180.5C 202.907,182.609 204.407,183.942 206.5,184.5C 200.558,183.575 194.891,181.742 189.5,179C 181.771,174.805 174.105,170.638 166.5,166.5C 137.277,135.609 107.277,105.276 76.5,75.5C 78.1198,73.0158 80.4531,71.5158 83.5,71C 108.164,70.5 132.831,70.3334 157.5,70.5 Z"/></g>
<g><path style="opacity:0.993" fill="#ee999a" d="M 157.5,70.5 C 177.167,70.5 196.833,70.5 216.5,70.5C 216.5,108.5 216.5,146.5 216.5,184.5C 213.167,184.5 209.833,184.5 206.5,184.5C 204.407,183.942 202.907,182.609 202,180.5C 187.063,143.849 172.229,107.183 157.5,70.5 Z"/></g>
<g><path style="opacity:0.993" fill="#feaa91" d="M 216.5,70.5 C 236.5,70.5 256.5,70.5 276.5,70.5C 261.561,108.315 246.227,145.982 230.5,183.5C 225.897,184.383 221.23,184.717 216.5,184.5C 216.5,146.5 216.5,108.5 216.5,70.5 Z"/></g>
<g><path style="opacity:0.993" fill="#fecb7f" d="M 276.5,70.5 C 300.502,70.3334 324.502,70.5 348.5,71C 352.109,71.6249 354.776,73.4582 356.5,76.5C 327.953,105.881 298.953,134.714 269.5,163C 270.448,163.483 271.448,163.649 272.5,163.5C 261.769,168.7 251.102,174.2 240.5,180C 237.252,181.46 233.919,182.626 230.5,183.5C 246.227,145.982 261.561,108.315 276.5,70.5 Z"/></g>
<g><path style="opacity:0.99" fill="#cd92d7" d="M 76.5,75.5 C 107.277,105.276 137.277,135.609 166.5,166.5C 157.302,162.403 147.969,158.57 138.5,155C 123.501,150.753 111.167,154.587 101.5,166.5C 90.8713,163.687 80.538,160.02 70.5,155.5C 70.5,133.5 70.5,111.5 70.5,89.5C 70.0069,83.6129 72.0069,78.9462 76.5,75.5 Z"/></g>
<g><path style="opacity:0.99" fill="#fedf81" d="M 356.5,76.5 C 360.283,79.8237 361.95,84.157 361.5,89.5C 361.5,111.833 361.5,134.167 361.5,156.5C 353.608,159.746 345.608,162.912 337.5,166C 335.676,166.66 334.343,167.827 333.5,169.5C 323.733,155.472 310.4,150.639 293.5,155C 286.287,157.348 279.287,160.181 272.5,163.5C 271.448,163.649 270.448,163.483 269.5,163C 298.953,134.714 327.953,105.881 356.5,76.5 Z"/></g>
<g><path style="opacity:1" fill="#070606" d="M 166.5,166.5 C 174.105,170.638 181.771,174.805 189.5,179C 194.891,181.742 200.558,183.575 206.5,184.5C 209.833,184.5 213.167,184.5 216.5,184.5C 221.23,184.717 225.897,184.383 230.5,183.5C 233.919,182.626 237.252,181.46 240.5,180C 251.102,174.2 261.769,168.7 272.5,163.5C 279.287,160.181 286.287,157.348 293.5,155C 310.4,150.639 323.733,155.472 333.5,169.5C 336.501,175.175 338.668,181.175 340,187.5C 340.5,197.161 340.666,206.828 340.5,216.5C 337.161,230.86 331.494,244.194 323.5,256.5C 315.421,268.384 304.754,277.218 291.5,283C 289.482,283.505 287.482,284.005 285.5,284.5C 280.07,284.839 274.736,284.339 269.5,283C 258.538,274.859 247.205,267.359 235.5,260.5C 229.883,256.541 223.55,254.541 216.5,254.5C 209.85,254.165 203.85,255.832 198.5,259.5C 188.513,264.975 179.179,271.475 170.5,279C 166.347,281.327 162.013,283.16 157.5,284.5C 145.404,285.31 134.737,281.81 125.5,274C 120.603,269.271 115.936,264.438 111.5,259.5C 101.904,246.301 95.5705,231.634 92.5,215.5C 88.9964,197.871 91.9964,181.538 101.5,166.5C 111.167,154.587 123.501,150.753 138.5,155C 147.969,158.57 157.302,162.403 166.5,166.5 Z"/></g>
<g><path style="opacity:0.978" fill="#b29cd9" d="M 70.5,155.5 C 80.538,160.02 90.8713,163.687 101.5,166.5C 91.9964,181.538 88.9964,197.871 92.5,215.5C 85.1667,215.5 77.8333,215.5 70.5,215.5C 70.5,195.5 70.5,175.5 70.5,155.5 Z"/></g>
<g><path style="opacity:0.977" fill="#fcf29b" d="M 361.5,156.5 C 361.5,176.5 361.5,196.5 361.5,216.5C 354.5,216.5 347.5,216.5 340.5,216.5C 340.666,206.828 340.5,197.161 340,187.5C 338.668,181.175 336.501,175.175 333.5,169.5C 334.343,167.827 335.676,166.66 337.5,166C 345.608,162.912 353.608,159.746 361.5,156.5 Z"/></g>
<g><path style="opacity:1" fill="#323232" d="M 120.5,161.5 C 125.844,161.334 131.177,161.501 136.5,162C 156.345,169.923 175.678,178.923 194.5,189C 208.856,193.605 223.189,193.605 237.5,189C 256.322,178.923 275.655,169.923 295.5,162C 307.738,159.092 317.905,162.259 326,171.5C 333.138,184.639 335.471,198.639 333,213.5C 328.919,237.849 317.086,257.349 297.5,272C 288.624,277.867 279.291,278.867 269.5,275C 257.861,265.175 245.194,256.842 231.5,250C 217.066,245.437 203.399,247.104 190.5,255C 180.777,262.389 170.777,269.389 160.5,276C 153.722,278.142 147.055,277.809 140.5,275C 118.507,261.555 105.007,242.055 100,216.5C 99.3333,207.5 99.3333,198.5 100,189.5C 101.396,179.874 105.562,171.708 112.5,165C 115.158,163.522 117.825,162.355 120.5,161.5 Z"/></g>
<g><path style="opacity:1" fill="#050506" d="M 131.5,197.5 C 142.948,197.278 153.948,199.444 164.5,204C 175.164,209.663 185.497,215.83 195.5,222.5C 187.904,229.306 179.57,235.139 170.5,240C 152.561,244.89 137.394,240.39 125,226.5C 120.902,220.889 117.402,214.889 114.5,208.5C 115.748,206.541 117.415,205.041 119.5,204C 123.434,201.536 127.434,199.369 131.5,197.5 Z"/></g>
<g><path style="opacity:1" fill="#070705" d="M 286.5,197.5 C 298.859,196.397 309.525,200.064 318.5,208.5C 313.646,219.741 306.312,228.908 296.5,236C 282.991,244.2 269.324,244.533 255.5,237C 249.396,232.863 243.563,228.363 238,223.5C 237.911,221.887 238.745,220.72 240.5,220C 247.668,215.917 254.668,211.584 261.5,207C 269.721,203.21 278.054,200.043 286.5,197.5 Z"/></g>
<g><path style="opacity:1" fill="#ad98d4" d="M 169.5,215.5 C 155.167,215.5 140.833,215.5 126.5,215.5C 125.763,213.695 124.763,212.029 123.5,210.5C 132.087,203.873 141.421,202.707 151.5,207C 155.09,208.53 158.757,209.864 162.5,211C 165.239,212.026 167.572,213.526 169.5,215.5 Z"/></g>
<g><path style="opacity:1" fill="#f6ed98" d="M 305.5,216.5 C 290.99,216.829 276.657,216.496 262.5,215.5C 273.302,208.068 285.302,204.568 298.5,205C 301.583,206.139 304.583,207.472 307.5,209C 308.022,209.561 308.355,210.228 308.5,211C 307.368,212.765 306.368,214.598 305.5,216.5 Z"/></g>
<g><path style="opacity:0.983" fill="#9ea6d8" d="M 70.5,215.5 C 77.8333,215.5 85.1667,215.5 92.5,215.5C 95.5705,231.634 101.904,246.301 111.5,259.5C 98.1109,264.631 84.7775,269.964 71.5,275.5C 70.5004,255.511 70.167,235.511 70.5,215.5 Z"/></g>
<g><path style="opacity:1" fill="#9ca5d6" d="M 126.5,215.5 C 140.833,215.5 155.167,215.5 169.5,215.5C 173.606,217.388 177.606,219.554 181.5,222C 182.451,222.718 182.617,223.551 182,224.5C 165.012,238.145 148.345,237.812 132,223.5C 130.404,220.631 128.57,217.964 126.5,215.5 Z"/></g>
<g><path style="opacity:1" fill="#e1e999" d="M 262.5,215.5 C 276.657,216.496 290.99,216.829 305.5,216.5C 295.42,231.698 281.42,237.198 263.5,233C 258.423,230.42 253.756,227.253 249.5,223.5C 253.694,220.571 258.027,217.905 262.5,215.5 Z"/></g>
<g><path style="opacity:0.982" fill="#e4ec9b" d="M 340.5,216.5 C 347.5,216.5 354.5,216.5 361.5,216.5C 361.5,236.167 361.5,255.833 361.5,275.5C 348.036,271.344 335.036,266.011 322.5,259.5C 323.127,258.583 323.461,257.583 323.5,256.5C 331.494,244.194 337.161,230.86 340.5,216.5 Z"/></g>
<g><path style="opacity:0.993" fill="#7fdde9" d="M 216.5,254.5 C 216.5,290.167 216.5,325.833 216.5,361.5C 196.5,361.5 176.5,361.5 156.5,361.5C 170.306,327.415 184.306,293.415 198.5,259.5C 203.85,255.832 209.85,254.165 216.5,254.5 Z"/></g>
<g><path style="opacity:0.993" fill="#80cac3" d="M 216.5,254.5 C 223.55,254.541 229.883,256.541 235.5,260.5C 248.971,294.247 262.638,327.914 276.5,361.5C 256.5,361.5 236.5,361.5 216.5,361.5C 216.5,325.833 216.5,290.167 216.5,254.5 Z"/></g>
<g><path style="opacity:0.991" fill="#96ccf8" d="M 70.5,89.5 C 70.5,111.5 70.5,133.5 70.5,155.5C 70.5,175.5 70.5,195.5 70.5,215.5C 70.167,235.511 70.5004,255.511 71.5,275.5C 84.7775,269.964 98.1109,264.631 111.5,259.5C 115.936,264.438 120.603,269.271 125.5,274C 134.737,281.81 145.404,285.31 157.5,284.5C 154.023,285.323 150.356,285.823 146.5,286C 122.863,309.47 99.5292,332.97 76.5,356.5C 74.1556,355.653 72.6556,353.986 72,351.5C 71.0124,348.576 70.3457,345.576 70,342.5C 69.1677,257.999 69.3343,173.666 70.5,89.5 Z"/></g>
<g><path style="opacity:0.99" fill="#c8e2a9" d="M 361.5,89.5 C 362.666,173.666 362.832,257.999 362,342.5C 361.654,345.576 360.988,348.576 360,351.5C 359.344,353.986 357.844,355.653 355.5,356.5C 332.53,332.196 309.196,308.196 285.5,284.5C 287.482,284.005 289.482,283.505 291.5,283C 304.754,277.218 315.421,268.384 323.5,256.5C 323.461,257.583 323.127,258.583 322.5,259.5C 335.036,266.011 348.036,271.344 361.5,275.5C 361.5,255.833 361.5,236.167 361.5,216.5C 361.5,196.5 361.5,176.5 361.5,156.5C 361.5,134.167 361.5,111.833 361.5,89.5 Z"/></g>
<g><path style="opacity:0.999" fill="#80d3f9" d="M 198.5,259.5 C 184.306,293.415 170.306,327.415 156.5,361.5C 132.164,361.667 107.831,361.5 83.5,361C 80.4531,360.484 78.1198,358.984 76.5,356.5C 99.5292,332.97 122.863,309.47 146.5,286C 150.356,285.823 154.023,285.323 157.5,284.5C 162.013,283.16 166.347,281.327 170.5,279C 179.179,271.475 188.513,264.975 198.5,259.5 Z"/></g>
<g><path style="opacity:0.993" fill="#a4d5a6" d="M 235.5,260.5 C 247.205,267.359 258.538,274.859 269.5,283C 274.736,284.339 280.07,284.839 285.5,284.5C 309.196,308.196 332.53,332.196 355.5,356.5C 353.948,358.959 351.615,360.459 348.5,361C 324.502,361.5 300.502,361.667 276.5,361.5C 262.638,327.914 248.971,294.247 235.5,260.5 Z"/></g>
</svg>
