<?xml version="1.0" encoding="iso-8859-1"?>
<!-- Generator: Adobe Illustrator 16.0.0, SVG Export Plug-In . SVG Version: 6.00 Build 0)  -->
<!DOCTYPE svg PUBLIC "-//W3C//DTD SVG 1.1//EN" "http://www.w3.org/Graphics/SVG/1.1/DTD/svg11.dtd">
<svg version="1.1" id="Capa_1" xmlns="http://www.w3.org/2000/svg" xmlns:xlink="http://www.w3.org/1999/xlink" x="0px" y="0px"
	 width="90.946px" height="90.945px" viewBox="0 0 90.946 90.945" style="enable-background:new 0 0 90.946 90.945;"
	 xml:space="preserve">
<g>
	<g>
		<polygon points="68.801,9.457 67.946,12.356 69.498,11.851 		"/>
		<polygon points="46.716,25.955 47.535,28.557 48.722,27.438 		"/>
		<path d="M79.788,35.755c-2.208,1.979-5.452,4.616-8.333,7.148c-0.317-4.402-1.093-8.953-1.093-12.952
			c0.009-6.419,0.688-15.586-0.876-16.621l-1.574,0.004c-1.254,1.424-0.876,8.642-1.177,14.274
			c-0.217,4.113-0.603,9.976-0.784,15.173c-2.353-1.979-4.863-3.852-6.821-5.812c-3.533-3.542-8.271-8.913-9.739-8.579L48.484,29.3
			c0.062,1.509,4.896,5.131,7.826,8.408c2.861,3.194,6.629,8.42,9.923,11.714c0.232,0.23,0.511,0.374,0.803,0.46
			c0.471,0.319,1.045,0.516,1.67,0.516c0.584,0,1.088-0.205,1.528-0.492c0.356-0.078,0.698-0.21,0.981-0.466
			c3.325-3.013,5.982-7.323,9.005-10.343c3.541-3.532,9.07-8.318,8.739-9.787l-0.91-0.904
			C86.543,28.471,83.063,32.829,79.788,35.755z"/>
		<polygon points="68.361,55.795 70.085,51.603 67.378,51.762 		"/>
		<polygon points="88.666,27.691 90.061,28.529 90.946,26.198 		"/>
		<polygon points="22.144,35.151 21.449,37.545 23,38.05 		"/>
		<polygon points="43.411,54.25 44.23,51.647 42.224,53.131 		"/>
		<path d="M31.815,62.665c-1.958,1.96-4.471,3.835-6.823,5.812c-0.18-5.196-0.568-11.059-0.783-15.174
			c-0.303-5.63,0.078-12.848-1.179-14.272l-1.572-0.005c-1.566,1.032-0.886,10.203-0.879,16.622c0.003,3.997-0.772,8.55-1.09,12.952
			c-2.882-2.532-6.125-5.169-8.333-7.148c-3.272-2.927-6.755-7.286-8.262-7.35l-0.911,0.905c-0.332,1.469,5.202,6.255,8.739,9.788
			c3.022,3.016,5.681,7.329,9.007,10.343c0.28,0.25,0.624,0.388,0.979,0.465c0.441,0.287,0.943,0.493,1.527,0.493
			c0.626,0,1.201-0.196,1.671-0.516c0.294-0.087,0.573-0.23,0.803-0.461c3.296-3.294,7.063-8.518,9.925-11.714
			c2.929-3.277,7.76-6.899,7.825-8.407l-0.907-0.91C40.084,53.753,35.348,59.125,31.815,62.665z"/>
		<polygon points="22.585,81.488 23.568,77.456 20.86,77.296 		"/>
		<polygon points="0,51.892 0.885,54.223 2.281,53.386 		"/>
	</g>
</g>
<g>
</g>
<g>
</g>
<g>
</g>
<g>
</g>
<g>
</g>
<g>
</g>
<g>
</g>
<g>
</g>
<g>
</g>
<g>
</g>
<g>
</g>
<g>
</g>
<g>
</g>
<g>
</g>
<g>
</g>
</svg>
