<?xml version="1.0" encoding="UTF-8" standalone="no"?>
<svg
   xmlns:dc="http://purl.org/dc/elements/1.1/"
   xmlns:cc="http://creativecommons.org/ns#"
   xmlns:rdf="http://www.w3.org/1999/02/22-rdf-syntax-ns#"
   xmlns:svg="http://www.w3.org/2000/svg"
   xmlns="http://www.w3.org/2000/svg"
   xmlns:sodipodi="http://sodipodi.sourceforge.net/DTD/sodipodi-0.dtd"
   xmlns:inkscape="http://www.inkscape.org/namespaces/inkscape"
   version="1.1"
   id="Layer_1"
   x="0px"
   y="0px"
   viewBox="0 0 30.71874 14.080019"
   xml:space="preserve"
   sodipodi:docname="bridge.svg"
   width="30.71874"
   height="14.08002"
   inkscape:version="1.0.2 (e86c870879, 2021-01-15)"><metadata
   id="metadata43"><rdf:RDF><cc:Work
       rdf:about=""><dc:format>image/svg+xml</dc:format><dc:type
         rdf:resource="http://purl.org/dc/dcmitype/StillImage" /><dc:title></dc:title></cc:Work></rdf:RDF></metadata><defs
   id="defs41" /><sodipodi:namedview
   pagecolor="#ffffff"
   bordercolor="#666666"
   borderopacity="1"
   objecttolerance="10"
   gridtolerance="10"
   guidetolerance="10"
   inkscape:pageopacity="0"
   inkscape:pageshadow="2"
   inkscape:window-width="2560"
   inkscape:window-height="1392"
   id="namedview39"
   showgrid="false"
   fit-margin-top="0"
   fit-margin-left="0"
   fit-margin-right="0"
   fit-margin-bottom="0"
   inkscape:zoom="5.1644142"
   inkscape:cx="42.764401"
   inkscape:cy="85.409333"
   inkscape:window-x="0"
   inkscape:window-y="25"
   inkscape:window-maximized="1"
   inkscape:current-layer="Layer_1"
   inkscape:document-rotation="0" />
<g
   id="g6"
   transform="matrix(0.06,0,0,0.06,0,-8.31936)">
	<g
   id="g4">
		<path
   d="m 501.333,266.656 h -99.221 c -14.869,-72.939 -79.488,-128 -156.779,-128 -77.291,0 -141.909,55.061 -156.779,128 H 10.667 C 4.779,266.656 0,271.435 0,277.323 c 0,0.427 0.192,0.811 0.256,1.216 -0.747,5.333 2.453,10.517 7.787,11.861 42.667,10.731 77.291,51.392 77.291,72.256 0,5.781 4.608,10.517 10.389,10.667 6.144,-0.192 10.624,-4.352 10.923,-10.112 0.64,-11.861 0.427,-27.968 0.213,-43.456 -0.085,-7.36 -0.192,-14.571 -0.192,-21.099 0,-3.605 0.277,-7.125 0.533,-10.667 h 276.245 c 0.277,3.541 0.533,7.061 0.533,10.667 l 0.043,17.963 c 0.064,11.755 0.107,23.979 -0.043,45.973 -0.043,5.461 4.075,10.091 9.515,10.667 0.405,0.043 0.768,0.064 1.152,0.064 4.992,0 9.365,-3.477 10.432,-8.448 9.28,-43.84 50.645,-76.885 96.235,-76.885 5.888,0 10.667,-4.779 10.667,-10.667 0,-5.888 -4.758,-10.667 -10.646,-10.667 z M 85.461,315.936 C 76.672,305.611 65.664,295.968 53.525,287.989 h 32.363 c -0.235,3.541 -0.533,7.061 -0.533,10.667 -0.022,5.397 0.042,11.264 0.106,17.28 z m 25.067,-49.28 c 7.36,-31.019 25.131,-57.984 49.451,-77.077 v 77.077 z m 124.139,0 h -53.333 v -90.88 c 16.171,-8.469 34.219,-13.76 53.333,-15.232 z m 74.666,0 H 256 V 160.523 c 19.115,1.472 37.163,6.784 53.333,15.232 z m 21.334,0 v -77.077 c 24.32,19.072 42.091,46.059 49.451,77.077 z m 74.709,48.149 -0.043,-16.149 c 0,-3.605 -0.299,-7.125 -0.533,-10.667 h 29.056 c -10.859,7.403 -20.544,16.427 -28.48,26.816 z"
   id="path2" />
	</g>
</g>
<g
   id="g8"
   transform="translate(-17.487347,-29.425569)">
</g>
<g
   id="g10"
   transform="translate(-17.487347,-29.425569)">
</g>
<g
   id="g12"
   transform="translate(-17.487347,-29.425569)">
</g>
<g
   id="g14"
   transform="translate(-17.487347,-29.425569)">
</g>
<g
   id="g16"
   transform="translate(-17.487347,-29.425569)">
</g>
<g
   id="g18"
   transform="translate(-17.487347,-29.425569)">
</g>
<g
   id="g20"
   transform="translate(-17.487347,-29.425569)">
</g>
<g
   id="g22"
   transform="translate(-17.487347,-29.425569)">
</g>
<g
   id="g24"
   transform="translate(-17.487347,-29.425569)">
</g>
<g
   id="g26"
   transform="translate(-17.487347,-29.425569)">
</g>
<g
   id="g28"
   transform="translate(-17.487347,-29.425569)">
</g>
<g
   id="g30"
   transform="translate(-17.487347,-29.425569)">
</g>
<g
   id="g32"
   transform="translate(-17.487347,-29.425569)">
</g>
<g
   id="g34"
   transform="translate(-17.487347,-29.425569)">
</g>
<g
   id="g36"
   transform="translate(-17.487347,-29.425569)">
</g>
</svg>
