<?xml version="1.0" encoding="UTF-8" standalone="no"?>
<svg
   width="166"
   height="220"
   viewBox="0 0 43.920833 58.208336"
   version="1.1"
   id="svg896"
   inkscape:version="1.3.2 (091e20ef0f, 2023-11-25)"
   sodipodi:docname="icon-noshield.svg"
   xmlns:inkscape="http://www.inkscape.org/namespaces/inkscape"
   xmlns:sodipodi="http://sodipodi.sourceforge.net/DTD/sodipodi-0.dtd"
   xmlns="http://www.w3.org/2000/svg"
   xmlns:svg="http://www.w3.org/2000/svg"
   xmlns:rdf="http://www.w3.org/1999/02/22-rdf-syntax-ns#"
   xmlns:cc="http://creativecommons.org/ns#"
   xmlns:dc="http://purl.org/dc/elements/1.1/">
  <defs
     id="defs890" />
  <sodipodi:namedview
     id="base"
     pagecolor="#d7d7d7"
     bordercolor="#666666"
     borderopacity="1.0"
     inkscape:pageopacity="0"
     inkscape:pageshadow="2"
     inkscape:zoom="3.3834377"
     inkscape:cx="15.81232"
     inkscape:cy="114.52849"
     inkscape:document-units="px"
     inkscape:current-layer="layer1"
     showgrid="true"
     units="px"
     inkscape:window-width="1920"
     inkscape:window-height="1131"
     inkscape:window-x="0"
     inkscape:window-y="32"
     inkscape:window-maximized="1"
     inkscape:document-rotation="0"
     inkscape:showpageshadow="2"
     inkscape:pagecheckerboard="0"
     inkscape:deskcolor="#d1d1d1">
    <inkscape:grid
       type="xygrid"
       id="grid1471"
       empspacing="4"
       originx="0"
       originy="0"
       spacingy="1"
       spacingx="1"
       units="px"
       visible="true" />
  </sodipodi:namedview>
  <metadata
     id="metadata893">
    <rdf:RDF>
      <cc:Work
         rdf:about="">
        <dc:format>image/svg+xml</dc:format>
        <dc:type
           rdf:resource="http://purl.org/dc/dcmitype/StillImage" />
      </cc:Work>
    </rdf:RDF>
  </metadata>
  <g
     inkscape:label="Layer 1"
     inkscape:groupmode="layer"
     id="layer1"
     transform="translate(0,-263.13332)">
    <path
       style="fill:#000000;fill-opacity:1;stroke:none;stroke-width:0.635971"
       d="m 22.238345,278.07409 c 0,0 -0.727426,-1.53371 -0.775939,-1.74525 -0.04853,-0.21159 -0.436471,-2.37987 -0.436471,-2.37987 l 0.484984,-0.95194 1.066911,-1.7452 1.551899,-1.32217 0.387959,-0.15897 3.734251,-1.53367 0.339467,-0.37021 -0.38798,-0.6346 -0.533458,-0.31734 -0.978968,-0.27349 -2.452524,-0.27351 -1.903126,0.0192 -1.309415,0.31733 -1.163917,-0.47598 -1.454888,-0.21155 -2.133846,-0.0528 -1.066931,-0.0529 -1.794361,0.74039 -2.715811,3.43759 -0.339484,1.32214 -0.193957,1.16348 -0.9214328,2.16834 -0.5819654,2.06254 -0.2909796,2.2212 v 0.47601 l -1.4063974,2.32693 -0.775939,1.74525 v 2.4856 l 0.2424655,5.12994 0.4364712,1.85107 0.8729388,1.69234 1.1154265,1.1106 0.4849643,2.16826 1.8428699,4.44218 2.182354,2.85573 0.145405,0.15849 0.775936,4.28375 -2.667302,5.28864 -0.837335,0.70635 -0.627702,0.55299 -1.0764325,-0.0324 -0.6004642,0.33732 -0.7283807,0.0335 -0.4400741,0.4776 -0.9422999,-0.15453 -0.9318064,-0.0492 -0.7188455,0.61697 -0.1034975,0.91666 0.4777971,-0.58857 0.803823,-0.25472 0.084194,0.84133 1.2701881,-0.46956 0.7283819,-0.0334 1.2850568,0.16694 c 0,0 1.1140819,-0.0795 1.3069329,-0.10203 0.192849,-0.0223 1.376195,0.10291 1.376195,0.10291 l 0.867834,-0.10278 0.460187,0.21154 0.616247,-0.17974 0.668807,0.34651 0.964245,-0.11405 0.124463,-0.70635 -0.03679,-0.36808 0.658312,0.24124 0.534667,0.46869 0.347097,0.54418 -0.02029,-0.68944 -0.421547,-0.80108 c 0,0 -0.288379,-0.44473 -0.481232,-0.42185 -0.192844,0.0223 -0.942316,-0.15452 -0.942316,-0.15452 l -0.514557,0.22055 -0.561875,-0.25288 -0.552248,0.33167 -0.508437,-0.20618 -0.245369,-0.50272 -0.353272,-0.11804 0.379635,-1.07728 0.872942,-1.32546 1.163913,-2.11542 1.018422,-1.32223 0.38798,-0.5288 c 0,0 0.484963,-0.79317 0.484963,-1.00474 0,-0.21159 0.09704,-2.43273 0.09704,-2.43273 l -0.630462,-1.42793 -0.290977,-1.16356 5.625617,1.48091 h 0.339465 l 4.801167,3.75488 0.678951,0.95181 0.24246,3.75447 -0.09704,0.84619 -0.339482,0.68756 -0.242758,0.42313 -0.209698,0.59366 -0.143193,0.39696 -0.891031,0.30057 -0.905717,-0.17781 -0.548862,-0.0736 -1.007885,0.15899 -0.424229,0.49432 -0.163247,0.61371 0.131607,0.62048 0.211332,-0.6211 0.287189,-0.41935 0.281064,-0.0972 0.02167,0.53091 0.37778,0.26094 0.781085,-0.39026 0.383968,-0.0607 0.124653,0.56814 1.172795,-0.025 0.795004,-0.28567 0.6518,0.11095 0.946746,0.11779 0.329079,-0.10439 0.260093,-0.2547 0.42037,0.9489 0.0056,-1.06956 -0.407186,-1.21819 -0.590683,-0.38773 0.09965,-0.31878 -0.436455,-0.8989 0.04853,-3.43727 2.424836,3.12034 3.200776,2.75009 c 0,0 2.18234,0.84628 2.376308,0.84628 0.193976,0 1.697392,-0.21156 1.697392,-0.21156 l 0.969928,-1.7452 -0.727444,-2.37983 0.290973,-0.79343 -1.551894,-2.22101 -3.287505,-3.64291 -0.786195,-2.86212 0.04853,-1.95677 -0.727428,-2.06262 -0.824448,-1.63933 0.484964,-1.63932 -0.38796,-2.37974 -1.653864,-4.05137 0.610939,-0.11232 -1.025298,-1.93164 0.666126,-0.23017 -1.170995,-2.07742 0.492536,-0.28899 -0.877741,-1.56825 0.286177,-0.1746 -1.06213,-0.93625 0.387975,-0.21944 -2.764306,-2.10756 z"
       id="path5892"
       inkscape:connector-curvature="0"
       sodipodi:nodetypes="csccccccccccccccccccccccccccccccccccccccccccccccccccccccscccccccccccccsccccccccccccscccccccccccccccccccccccccccccccccccccccccccscccccccccccccccccccccccc" />
  </g>
</svg>
