<?xml version="1.0" encoding="iso-8859-1"?>
<!-- Generator: Adobe Illustrator 16.0.0, SVG Export Plug-In . SVG Version: 6.00 Build 0)  -->
<!DOCTYPE svg PUBLIC "-//W3C//DTD SVG 1.1//EN" "http://www.w3.org/Graphics/SVG/1.1/DTD/svg11.dtd">
<svg version="1.1" id="Capa_1" xmlns="http://www.w3.org/2000/svg" xmlns:xlink="http://www.w3.org/1999/xlink" x="0px" y="0px"
	 width="31.603px" height="31.603px" viewBox="0 0 31.603 31.603" style="enable-background:new 0 0 31.603 31.603;"
	 xml:space="preserve">
<g>
	<g>
		<path d="M7.703,15.973c0,0,5.651-5.625,5.651-10.321C13.354,2.53,10.824,0,7.703,0S2.052,2.53,2.052,5.652
			C2.052,10.614,7.703,15.973,7.703,15.973z M4.758,5.652c0-1.628,1.319-2.946,2.945-2.946s2.945,1.318,2.945,2.946
			c0,1.626-1.319,2.944-2.945,2.944S4.758,7.278,4.758,5.652z"/>
		<path d="M28.59,7.643l-0.459,0.146l-2.455,0.219l-0.692,1.106l-0.501-0.16l-1.953-1.76l-0.285-0.915l-0.377-0.977L20.639,4.2
			l-1.446-0.283L19.159,4.58l1.418,1.384l0.694,0.817l-0.782,0.408l-0.636-0.188l-0.951-0.396l0.033-0.769l-1.25-0.514L17.27,7.126
			l-1.258,0.286l0.125,1.007l1.638,0.316l0.284-1.609l1.353,0.201l0.629,0.368h1.011l0.69,1.384l1.833,1.859l-0.134,0.723
			l-1.478-0.189l-2.553,1.289l-1.838,2.205l-0.239,0.976h-0.661l-1.229-0.566l-1.194,0.566l0.297,1.261l0.52-0.602l0.913-0.027
			l-0.064,1.132l0.757,0.22l0.756,0.85l1.234-0.347l1.41,0.222l1.636,0.441l0.819,0.095l1.384,1.573l2.675,1.574l-1.729,3.306
			l-1.826,0.849l-0.693,1.889l-2.643,1.765l-0.282,1.019c6.753-1.627,11.779-7.693,11.779-14.95
			C31.194,13.038,30.234,10.09,28.59,7.643z"/>
		<path d="M17.573,24.253l-1.12-2.078l1.028-2.146l-1.028-0.311l-1.156-1.159l-2.56-0.573l-0.85-1.779v1.057h-0.375l-1.625-2.203
			c-0.793,0.949-1.395,1.555-1.47,1.629L7.72,17.384l-0.713-0.677c-0.183-0.176-3.458-3.315-5.077-7.13
			c-0.966,2.009-1.52,4.252-1.52,6.63c0,8.502,6.891,15.396,15.393,15.396c0.654,0,1.296-0.057,1.931-0.135l-0.161-1.864
			c0,0,0.707-2.77,0.707-2.863C18.28,26.646,17.573,24.253,17.573,24.253z"/>
		<path d="M14.586,3.768l1.133,0.187l2.75-0.258l0.756-0.834l1.068-0.714l1.512,0.228l0.551-0.083
			c-1.991-0.937-4.207-1.479-6.553-1.479c-1.096,0-2.16,0.128-3.191,0.345c0.801,0.875,1.377,1.958,1.622,3.163L14.586,3.768z
			 M16.453,2.343l1.573-0.865l1.009,0.582l-1.462,1.113l-1.394,0.141L15.55,2.907L16.453,2.343z"/>
	</g>
</g>
<g>
</g>
<g>
</g>
<g>
</g>
<g>
</g>
<g>
</g>
<g>
</g>
<g>
</g>
<g>
</g>
<g>
</g>
<g>
</g>
<g>
</g>
<g>
</g>
<g>
</g>
<g>
</g>
<g>
</g>
</svg>
