<?xml version='1.0' encoding='utf-8'?>
<!DOCTYPE svg PUBLIC '-//W3C//DTD SVG 1.1//EN' 'http://www.w3.org/Graphics/SVG/1.1/DTD/svg11.dtd'>
<svg version="1.1" xmlns="http://www.w3.org/2000/svg" viewBox="0 0 512 512" xmlns:xlink="http://www.w3.org/1999/xlink" enable-background="new 0 0 512 512">
  <g>
    <g>
      <path d="m256,501c-120.6,0-218.7-98.1-218.7-218.7 0-91.6 57.9-174.1 144.2-205.4 10.6-3.9 22.3,1.6 26.2,12.2 3.8,10.6-1.6,22.3-12.2,26.2-70.1,25.5-117.3,92.6-117.3,167 0,98.1 79.8,177.8 177.8,177.8 98.1,0 177.8-79.8 177.8-177.8 0-74.4-47.1-141.6-117.3-167-10.6-3.8-16.1-15.6-12.2-26.2 3.8-10.6 15.6-16.1 26.2-12.2 86.2,31.3 144.2,113.8 144.2,205.4 0,120.6-98.1,218.7-218.7,218.7z"/>
      <path d="m256,308.8c-11.3,0-20.4-9.1-20.4-20.4v-257c0-11.3 9.1-20.4 20.4-20.4 11.3,0 20.4,9.1 20.4,20.4v256.9c0,11.3-9.1,20.5-20.4,20.5z"/>
    </g>
  </g>
</svg>
