<?xml version="1.0" encoding="UTF-8" standalone="no"?>
<svg
   xmlns:dc="http://purl.org/dc/elements/1.1/"
   xmlns:cc="http://creativecommons.org/ns#"
   xmlns:rdf="http://www.w3.org/1999/02/22-rdf-syntax-ns#"
   xmlns:svg="http://www.w3.org/2000/svg"
   xmlns="http://www.w3.org/2000/svg"
   xmlns:sodipodi="http://sodipodi.sourceforge.net/DTD/sodipodi-0.dtd"
   xmlns:inkscape="http://www.inkscape.org/namespaces/inkscape"
   width="24"
   height="24"
   fill="currentColor"
   class="bi bi-reception-4"
   viewBox="0 0 24 24"
   version="1.1"
   id="svg4"
   sodipodi:docname="reception-4@24.svg"
   inkscape:version="1.0.2 (e86c870879, 2021-01-15)">
  <metadata
     id="metadata10">
    <rdf:RDF>
      <cc:Work
         rdf:about="">
        <dc:format>image/svg+xml</dc:format>
        <dc:type
           rdf:resource="http://purl.org/dc/dcmitype/StillImage" />
        <dc:title />
      </cc:Work>
    </rdf:RDF>
  </metadata>
  <defs
     id="defs8" />
  <sodipodi:namedview
     pagecolor="#ffffff"
     bordercolor="#666666"
     borderopacity="1"
     objecttolerance="10"
     gridtolerance="10"
     guidetolerance="10"
     inkscape:pageopacity="0"
     inkscape:pageshadow="2"
     inkscape:window-width="1920"
     inkscape:window-height="1057"
     id="namedview6"
     showgrid="false"
     inkscape:zoom="36.041667"
     inkscape:cx="15.42659"
     inkscape:cy="15.840614"
     inkscape:window-x="1920"
     inkscape:window-y="0"
     inkscape:window-maximized="1"
     inkscape:current-layer="svg4"
     inkscape:document-rotation="0" />
  <path
     d="m 0.01944773,20.028572 c 2.3e-7,-0.442145 0.35842955,-0.800574 0.80057444,-0.800574 H 3.2176956 c 0.4421449,0 0.8005745,0.358429 0.8005745,0.800574 v 3.202298 c 0,0.442145 -0.3584296,0.800574 -0.8005745,0.800574 H 0.82002217 c -0.44214489,0 -0.80057421,-0.358429 -0.80057444,-0.800574 z M 6.3130604,15.225125 c 3e-7,-0.442145 0.3584296,-0.800574 0.8005745,-0.800574 h 2.6473842 c 0.4421449,0 0.8005739,0.358429 0.8005739,0.800574 v 8.005745 c 0,0.442145 -0.358429,0.800574 -0.8005739,0.800574 H 7.1136349 c -0.4421449,0 -0.8005745,-0.358429 -0.8005745,-0.800574 z m 6.7375416,-4.803446 c 1e-6,-0.442145 0.35843,-0.8005738 0.800575,-0.8005738 h 2.61964 c 0.442144,0 0.800573,0.3584292 0.800574,0.8005738 V 23.23087 c -1e-6,0.442145 -0.35843,0.800574 -0.800574,0.800574 h -2.61964 c -0.442145,0 -0.800574,-0.358429 -0.800575,-0.800574 z m 6.820781,-4.8034462 c 0,-0.4421449 0.358429,-0.8005744 0.800574,-0.8005744 h 2.564148 c 0.442145,0 0.800574,0.3584295 0.800574,0.8005744 V 23.23087 c 0,0.442145 -0.358429,0.800574 -0.800574,0.800574 h -2.564148 c -0.442145,0 -0.800574,-0.358429 -0.800574,-0.800574 z"
     id="path2"
     style="stroke-width:1.60115"
     sodipodi:nodetypes="ssssssssscsscssssccssccssccsssscsscs" />
</svg>
