<?xml version="1.0" encoding="UTF-8" standalone="no"?>
<svg
   xmlns:dc="http://purl.org/dc/elements/1.1/"
   xmlns:cc="http://creativecommons.org/ns#"
   xmlns:rdf="http://www.w3.org/1999/02/22-rdf-syntax-ns#"
   xmlns:svg="http://www.w3.org/2000/svg"
   xmlns="http://www.w3.org/2000/svg"
   xmlns:sodipodi="http://sodipodi.sourceforge.net/DTD/sodipodi-0.dtd"
   xmlns:inkscape="http://www.inkscape.org/namespaces/inkscape"
   width="24"
   height="24"
   fill="currentColor"
   class="bi bi-reception-4"
   viewBox="0 0 24 24"
   version="1.1"
   id="svg4"
   sodipodi:docname="reception-4@24.svg"
   inkscape:version="1.0.2 (e86c870879, 2021-01-15)">
  <metadata
     id="metadata10">
    <rdf:RDF>
      <cc:Work
         rdf:about="">
        <dc:format>image/svg+xml</dc:format>
        <dc:type
           rdf:resource="http://purl.org/dc/dcmitype/StillImage" />
        <dc:title></dc:title>
      </cc:Work>
    </rdf:RDF>
  </metadata>
  <defs
     id="defs8" />
  <sodipodi:namedview
     pagecolor="#ffffff"
     bordercolor="#666666"
     borderopacity="1"
     objecttolerance="10"
     gridtolerance="10"
     guidetolerance="10"
     inkscape:pageopacity="0"
     inkscape:pageshadow="2"
     inkscape:window-width="1920"
     inkscape:window-height="1057"
     id="namedview6"
     showgrid="false"
     inkscape:zoom="36.041667"
     inkscape:cx="12"
     inkscape:cy="12"
     inkscape:window-x="1920"
     inkscape:window-y="0"
     inkscape:window-maximized="1"
     inkscape:current-layer="svg4" />
  <path
     d="M -2.9802812e-4,17.604914 A 0.80057442,0.80057442 0 0 1 0.80027642,16.80434 H 4.0025741 a 0.80057442,0.80057442 0 0 1 0.8005745,0.800574 v 3.202298 A 0.80057442,0.80057442 0 0 1 4.0025741,21.607786 H 0.80027642 A 0.80057442,0.80057442 0 0 1 -2.9802812e-4,20.807212 Z M 6.4042973,12.801467 a 0.80057442,0.80057442 0 0 1 0.8005745,-0.800574 h 3.2022972 a 0.80057442,0.80057442 0 0 1 0.800574,0.800574 v 8.005745 a 0.80057442,0.80057442 0 0 1 -0.800574,0.800574 H 7.2048718 A 0.80057442,0.80057442 0 0 1 6.4042973,20.807212 Z M 12.808891,7.9980212 a 0.80057442,0.80057442 0 0 1 0.800575,-0.8005745 h 3.202298 a 0.80057442,0.80057442 0 0 1 0.800574,0.8005745 V 20.807212 a 0.80057442,0.80057442 0 0 1 -0.800574,0.800574 h -3.202298 a 0.80057442,0.80057442 0 0 1 -0.800575,-0.800574 z m 6.404596,-4.8034466 a 0.80057442,0.80057442 0 0 1 0.800574,-0.8005744 h 3.202298 a 0.80057442,0.80057442 0 0 1 0.800574,0.8005744 V 20.807212 a 0.80057442,0.80057442 0 0 1 -0.800574,0.800574 h -3.202298 a 0.80057442,0.80057442 0 0 1 -0.800574,-0.800574 z"
     id="path2"
     style="stroke-width:1.60115" />
</svg>
