<?xml version="1.0" encoding="UTF-8" standalone="no"?>
<svg
   xmlns:dc="http://purl.org/dc/elements/1.1/"
   xmlns:cc="http://creativecommons.org/ns#"
   xmlns:rdf="http://www.w3.org/1999/02/22-rdf-syntax-ns#"
   xmlns:svg="http://www.w3.org/2000/svg"
   xmlns="http://www.w3.org/2000/svg"
   xmlns:sodipodi="http://sodipodi.sourceforge.net/DTD/sodipodi-0.dtd"
   xmlns:inkscape="http://www.inkscape.org/namespaces/inkscape"
   width="24"
   height="24"
   fill="currentColor"
   class="bi bi-reception-0"
   viewBox="0 0 24 24"
   version="1.1"
   id="svg4"
   sodipodi:docname="reception-0@24.svg"
   inkscape:version="1.0.2 (e86c870879, 2021-01-15)">
  <metadata
     id="metadata10">
    <rdf:RDF>
      <cc:Work
         rdf:about="">
        <dc:format>image/svg+xml</dc:format>
        <dc:type
           rdf:resource="http://purl.org/dc/dcmitype/StillImage" />
        <dc:title />
      </cc:Work>
    </rdf:RDF>
  </metadata>
  <defs
     id="defs8" />
  <sodipodi:namedview
     pagecolor="#ffffff"
     bordercolor="#666666"
     borderopacity="1"
     objecttolerance="10"
     gridtolerance="10"
     guidetolerance="10"
     inkscape:pageopacity="0"
     inkscape:pageshadow="2"
     inkscape:window-width="1920"
     inkscape:window-height="1057"
     id="namedview6"
     showgrid="false"
     inkscape:zoom="19.11398"
     inkscape:cx="12.190695"
     inkscape:cy="10.742019"
     inkscape:window-x="1920"
     inkscape:window-y="0"
     inkscape:window-maximized="1"
     inkscape:current-layer="svg4"
     inkscape:document-rotation="0" />
  <path
     d="M 0.05770788,23.154029 A 0.79949398,0.79949398 0 0 1 0.85720186,22.354535 H 4.0551778 a 0.79949398,0.79949398 0 0 1 0,1.598987 H 0.85720186 A 0.79949398,0.79949398 0 0 1 0.05770788,23.154029 Z m 6.39595182,0 a 0.79949398,0.79949398 0 0 1 0.799494,-0.799494 h 3.1979753 a 0.79949398,0.79949398 0 0 1 0,1.598987 H 7.2531537 a 0.79949398,0.79949398 0 0 1 -0.799494,-0.799493 z m 6.3959513,0 a 0.79949398,0.79949398 0 0 1 0.799494,-0.799494 h 3.197976 a 0.79949398,0.79949398 0 0 1 0,1.598987 h -3.197976 a 0.79949398,0.79949398 0 0 1 -0.799494,-0.799493 z m 6.395952,0 a 0.79949398,0.79949398 0 0 1 0.799494,-0.799494 h 3.197975 a 0.79949398,0.79949398 0 0 1 0,1.598987 h -3.197975 a 0.79949398,0.79949398 0 0 1 -0.799494,-0.799493 z"
     id="path2"
     style="stroke-width:1.59899" />
</svg>
