<svg width="166" height="220" viewBox="0 0 166 220" fill="none" xmlns="http://www.w3.org/2000/svg">
<g filter="url(#filter0_d_665_1296)">
<path d="M75.7917 211.927C37.7612 190.779 9.33381 157.386 2.89179 126.295C1.07048 117.505 0.998933 115.374 1.00102 69.9755L1.00262 26.6083L4.76449 24.1851C20.662 13.9449 37.4789 7.09821 54.6107 3.64229C89.5869 -3.41322 125.876 3.66238 158.333 24.8539L161 26.5952V70.1783C161 115.754 160.927 117.944 159.119 126.65C152.714 157.49 128.092 187.572 91.7516 208.96C81.1938 215.174 81.5207 215.113 75.7917 211.927Z" fill="#739B4C"/>
</g>
<path d="M81.0089 1.00082C72.1811 0.99767 63.3554 1.87831 54.6114 3.64218C37.4796 7.09809 20.6622 13.9447 4.76468 24.185L1.00318 26.608L1.00002 69.9756C0.998421 115.374 1.06949 117.505 2.89058 126.295C9.3326 157.386 37.76 190.778 75.7905 211.927H75.7913C78.2626 213.301 79.6075 214.092 81.1849 214.051V1.00327C81.1259 1.00314 81.0673 1 81.008 1L81.0089 1.00082Z" fill="#81A55D"/>
<path d="M85.1649 70.5684C85.1649 70.5684 83.4249 67.2186 83.3089 66.7566C83.1928 66.2944 82.2648 61.5589 82.2648 61.5589L83.4249 59.4797L85.9769 55.6679L89.689 52.7803L90.617 52.4336L99.5493 49.0837L100.361 48.2753L99.4332 46.8893L98.1572 46.1962L95.8155 45.5988L89.9492 45.0015L85.3969 45.0397L82.2648 45.7329L79.4808 44.6933L76.0007 44.231L70.8966 44.1155L68.3445 44L64.0524 45.617L57.5563 53.1251L56.7442 56.0127L56.2803 58.5539L54.0762 63.2897L52.6842 67.7945L51.9882 72.6459V73.6855L48.6241 78.7677L46.7681 82.5796V88.0085L47.348 99.2127L48.3921 103.256L50.4801 106.952L53.1482 109.377L54.3082 114.113L58.7163 123.815L63.9365 130.053L64.2843 130.399L66.1403 139.755L59.7602 151.306L57.7573 152.849L56.2558 154.057L53.681 153.986L52.2448 154.723L50.5025 154.796L49.4498 155.839L47.1959 155.502L44.967 155.395L43.2476 156.742L43 158.744L44.1429 157.459L46.0656 156.902L46.267 158.74L49.3053 157.715L51.0475 157.641L54.1213 158.006C54.1213 158.006 56.7862 157.833 57.2475 157.783C57.7088 157.734 60.5393 158.009 60.5393 158.009L62.6152 157.784L63.7159 158.246L65.19 157.854L66.7898 158.611L69.0962 158.362L69.3939 156.819L69.3059 156.015L70.8806 156.542L72.1595 157.566L72.9897 158.754L72.9412 157.248L71.9329 155.499C71.9329 155.499 71.2431 154.527 70.7818 154.577C70.3205 154.627 68.5278 154.24 68.5278 154.24L67.297 154.722L65.953 154.17L64.6321 154.894L63.4159 154.444L62.829 153.346L61.9839 153.088L62.892 150.735L64.9801 147.84L67.7641 143.22L70.2002 140.332L71.1282 139.177C71.1282 139.177 72.2882 137.444 72.2882 136.982C72.2882 136.52 72.5204 131.669 72.5204 131.669L71.0123 128.55L70.3163 126.009L83.7727 129.243H84.5847L96.069 137.444L97.693 139.523L98.273 147.724L98.0408 149.572L97.2288 151.073L96.6481 151.998L96.1465 153.294L95.804 154.161L93.6727 154.818L91.5062 154.429L90.1933 154.268L87.7825 154.615L86.7678 155.695L86.3773 157.035L86.6921 158.39L87.1976 157.034L87.8846 156.118L88.5569 155.905L88.6087 157.065L89.5123 157.635L91.3807 156.782L92.2991 156.65L92.5972 157.891L95.4025 157.836L97.3042 157.212L98.8633 157.455L101.128 157.712L101.915 157.484L102.537 156.928L103.543 159L103.556 156.664L102.582 154.003L101.169 153.156L101.407 152.46L100.363 150.497L100.479 142.989L106.28 149.805L113.936 155.811C113.936 155.811 119.156 157.66 119.62 157.66C120.084 157.66 123.68 157.197 123.68 157.197L126 153.386L124.26 148.188L124.956 146.455L121.244 141.604L113.38 133.647L111.5 127.396L111.616 123.122L109.876 118.618L107.904 115.037L109.064 111.457L108.136 106.259L104.18 97.4105L105.641 97.1651L103.189 92.9463L104.782 92.4435L101.981 87.9063L103.159 87.2751L101.06 83.8498L101.744 83.4687L99.2035 81.4238L100.131 80.9447L93.5193 76.3414L85.1649 70.5684Z" fill="black"/>
<defs>
<filter id="filter0_d_665_1296" x="0.000976562" y="0" width="165.999" height="219.054" filterUnits="userSpaceOnUse" color-interpolation-filters="sRGB">
<feFlood flood-opacity="0" result="BackgroundImageFix"/>
<feColorMatrix in="SourceAlpha" type="matrix" values="0 0 0 0 0 0 0 0 0 0 0 0 0 0 0 0 0 0 127 0" result="hardAlpha"/>
<feOffset dx="2" dy="2"/>
<feGaussianBlur stdDeviation="1.5"/>
<feComposite in2="hardAlpha" operator="out"/>
<feColorMatrix type="matrix" values="0 0 0 0 1 0 0 0 0 0.8 0 0 0 0 0.2 0 0 0 0.18 0"/>
<feBlend mode="normal" in2="BackgroundImageFix" result="effect1_dropShadow_665_1296"/>
<feBlend mode="normal" in="SourceGraphic" in2="effect1_dropShadow_665_1296" result="shape"/>
</filter>
</defs>
</svg>
