<svg width="16" height="16" viewBox="0 0 16 16" fill="none" xmlns="http://www.w3.org/2000/svg">
<path d="M12.2501 2.33331L9.41675 5.16665H11.5417V10.8333C11.5417 11.209 11.3925 11.5694 11.1268 11.835C10.8611 12.1007 10.5008 12.25 10.1251 12.25C9.74936 12.25 9.38902 12.1007 9.12335 11.835C8.85767 11.5694 8.70842 11.209 8.70842 10.8333V5.16665C8.70842 4.4152 8.4099 3.69453 7.87855 3.16318C7.3472 2.63182 6.62653 2.33331 5.87508 2.33331C5.12363 2.33331 4.40297 2.63182 3.87161 3.16318C3.34026 3.69453 3.04175 4.4152 3.04175 5.16665V10.8333H0.916748L3.75008 13.6666L6.58342 10.8333H4.45842V5.16665C4.45842 4.79092 4.60767 4.43059 4.87335 4.16491C5.13902 3.89924 5.49936 3.74998 5.87508 3.74998C6.2508 3.74998 6.61114 3.89924 6.87682 4.16491C7.14249 4.43059 7.29175 4.79092 7.29175 5.16665V10.8333C7.29175 11.5848 7.59026 12.3054 8.12161 12.8368C8.65297 13.3681 9.37364 13.6666 10.1251 13.6666C10.8765 13.6666 11.5972 13.3681 12.1286 12.8368C12.6599 12.3054 12.9584 11.5848 12.9584 10.8333V5.16665H15.0834L12.2501 2.33331Z" fill="black"/>
</svg>
